# xmcd
#
# Track frame offsets:
#	150
#	12312
#	26550
#	42347
#	62077
#	74902
#	91005
#	104165
#	116645
#	128662
#	142555
#	153865
#	167482
#	180575
#
# Disc length: 2585 seconds
#
# Revision: 0
# Processed by: cddbd v1.4PL0 Copyright (c) Steve Scherf et al.
# Submitted via: EasyCDDAExtractor 5.0.5.1
#
DISCID=b50a170e
DTITLE=J. D'Arienzo/M. Bustos/J. Valdez - Si soy así
DYEAR=1900
DGENRE=Tango
TTITLE0=Si soy así
TTITLE1=Chirusa
TTITLE2=Señora princesa
TTITLE3=Remembranzas
TTITLE4=Mandria
TTITLE5=Ave de paso
TTITLE6=Qué me importa el pasado
TTITLE7=Santa milonguita
TTITLE8=Justo el 31
TTITLE9=Vos y yo corazón
TTITLE10=No te quiero más
TTITLE11=Frente al mar
TTITLE12=Muñeca brava
TTITLE13=Adiós Chantecler
EXTD=
EXTT0=
EXTT1=
EXTT2=
EXTT3=
EXTT4=
EXTT5=
EXTT6=
EXTT7=
EXTT8=
EXTT9=
EXTT10=
EXTT11=
EXTT12=
EXTT13=
PLAYORDER=
